<?xml version="1.0" encoding="UTF-8" standalone="no"?>
<svg width="9000px" height="750px" viewBox="0 0 9000 750" version="1.1" xmlns="http://www.w3.org/2000/svg" xmlns:xlink="http://www.w3.org/1999/xlink" xmlns:sketch="http://www.bohemiancoding.com/sketch/ns">
    <!-- Generator: Sketch 3.0.3 (7891) - http://www.bohemiancoding.com/sketch -->
    <title>map</title>
    <desc>Created with Sketch.</desc>
    <defs></defs>
    <g id="Page-1" stroke="none" stroke-width="1" fill="none" fill-rule="evenodd" sketch:type="MSPage">
        <g id="bounds-ground" sketch:type="MSLayerGroup" transform="translate(0.000000, 650.000000)" stroke="#979797">
            <path d="M0,0 L9000,0 L9000,100 L0,100 L0,0 Z" sketch:type="MSShapeGroup"></path>
        </g>
        <g id="Path-8" sketch:type="MSLayerGroup" transform="translate(7213.000000, 584.000000)" stroke="#979797">
            <path d="M-0.0366826206,66 L1382,5 L1787,0 L1787,66 L-0.0366826206,66 Z" sketch:type="MSShapeGroup"></path>
        </g>
        <g id="Path-7" sketch:type="MSLayerGroup" transform="translate(5125.000000, 575.000000)" stroke="#979797">
            <path d="M0,20 L686,0 L1893,75.0327225 L0,75 L0,20 Z" sketch:type="MSShapeGroup"></path>
        </g>
        <g id="Path-6" sketch:type="MSLayerGroup" transform="translate(4164.000000, 503.000000)" stroke="#979797">
            <path d="M0,147.000002 L0,72 L231,0 L675,8 L961,92 L961,147.000002 L0,147.000002 Z" sketch:type="MSShapeGroup"></path>
        </g>
        <g id="Path-5" sketch:type="MSLayerGroup" transform="translate(3196.000000, 575.000000)" stroke="#979797">
            <path d="M0,75 L968,0 L968,75 L0,75 Z" sketch:type="MSShapeGroup"></path>
        </g>
        <g id="Path-4" sketch:type="MSLayerGroup" transform="translate(2200.000000, 610.000000)" stroke="#979797">
            <path d="M0.0378417969,0.0883789062 L545,40 L0.0378417969,39.9621582 L0.0378417969,0.0883789062 Z" sketch:type="MSShapeGroup"></path>
        </g>
        <g id="Path-3" sketch:type="MSLayerGroup" transform="translate(1501.000000, 558.000000)" stroke="#979797">
            <path d="M0,92 L541,0.015625 L699,52 L699,92 L0,92 Z" sketch:type="MSShapeGroup"></path>
        </g>
        <g id="Path-2" sketch:type="MSLayerGroup" transform="translate(410.000000, 617.000000)" stroke="#979797">
            <path d="M0,33 L575,0 L965,33 L0,33 Z" sketch:type="MSShapeGroup"></path>
        </g>
        <g id="Path-1" sketch:type="MSLayerGroup" transform="translate(0.000000, 630.000000)" stroke="#979797">
            <path d="M0,0.00891113281 L300,20 L0,20 L0,0.00891113281 Z" sketch:type="MSShapeGroup"></path>
        </g>
    </g>
</svg>